<?xml version="1.0" encoding="UTF-8" standalone="no"?>
<!-- Created with Inkscape (http://www.inkscape.org/) -->

<svg
   version="1.1"
   id="svg2032"
   width="1400"
   height="1400"
   viewBox="0 0 1400 1400"
   sodipodi:docname="EloShapesLogo-Square.svg"
   inkscape:version="1.1.2 (b8e25be833, 2022-02-05)"
   xmlns:inkscape="http://www.inkscape.org/namespaces/inkscape"
   xmlns:sodipodi="http://sodipodi.sourceforge.net/DTD/sodipodi-0.dtd"
   xmlns="http://www.w3.org/2000/svg"
   xmlns:svg="http://www.w3.org/2000/svg">
  <defs
     id="defs2036" />
  <sodipodi:namedview
     id="namedview2034"
     pagecolor="#505050"
     bordercolor="#ffffff"
     borderopacity="1"
     inkscape:pageshadow="0"
     inkscape:pageopacity="0"
     inkscape:pagecheckerboard="1"
     showgrid="false"
     inkscape:zoom="0.44070429"
     inkscape:cx="897.42716"
     inkscape:cy="800.99061"
     inkscape:window-width="1920"
     inkscape:window-height="1017"
     inkscape:window-x="-8"
     inkscape:window-y="-8"
     inkscape:window-maximized="1"
     inkscape:current-layer="g2038" />
  <g
     inkscape:groupmode="layer"
     inkscape:label="Image"
     id="g2038"
     transform="translate(426.02567,370.65338)">
    <rect
       style="fill:#1a72e9;fill-opacity:1;stroke:none;stroke-width:0;stroke-linejoin:round;stroke-miterlimit:4;stroke-dasharray:none;paint-order:markers fill stroke"
       id="rect1293"
       width="1400"
       height="1400"
       x="-426.02567"
       y="-370.65338"
       ry="0.69518942" />
    <path
       style="fill:#ffffff;fill-opacity:1;stroke-width:2.00125"
       d="m 134.8869,833.53962 c -12.65795,-0.10566 -28.86814,-0.94098 -36.022641,-1.85644 -7.15448,-0.91545 -21.11326,-3.64357 -31.01948,-6.06248 -9.90623,-2.4189 -26.49449,-7.84555 -36.8628,-12.05919 C 20.613669,809.34784 5.6998889,802.221 -2.1597511,797.72405 -10.019391,793.2271 -22.491771,785.02314 -29.876171,779.49304 c -7.38439,-5.53012 -19.58115,-16.04884 -27.10391,-23.37493 -7.52274,-7.3261 -19.28808,-20.97498 -26.14518,-30.33085 -6.85709,-9.35589 -17.281639,-26.91693 -23.165639,-39.02453 -5.88401,-12.10762 -13.48989,-30.56922 -16.90197,-41.0258 -3.41207,-10.45656 -7.97846,-28.85053 -10.14754,-40.87548 -2.23886,-12.4119 -3.94376,-30.69556 -3.94376,-42.29383 0,-11.23667 1.83584,-34.18995 4.07964,-51.00728 2.24381,-16.81735 7.67581,-48.21684 12.07115,-69.77663 4.39531,-21.55979 9.41711,-46.85442 11.15953,-56.21031 2.74244,-14.72553 3.00912,-31.52819 1.98499,-125.07861 -0.65067,-59.43736 -2.11568,-127.79691 -3.2556,-151.91011 -1.13993,-24.113227 -2.28693,-64.638699 -2.54891,-90.05662 -0.34084,-33.06952 0.28106,-49.345156 2.18644,-57.221346 1.46452,-6.053805 5.35054,-18.645627 8.63558,-27.981828 3.285049,-9.336202 8.841049,-22.359546 12.346669,-28.940766 3.50562,-6.58122 10.99192,-16.95548 16.6362,-23.05391 5.9504,-6.42916 16.79173,-14.82387 25.80207,-19.9792 8.54684,-4.89012 24.31922,-11.83189 35.04973,-15.42615 10.7305199,-3.59425 28.07595,-7.99512 38.5454,-9.77971 13.359,-2.27712 26.70186,-2.9914 44.74451,-2.3953 14.14004,0.46717 34.939951,2.37994 46.222041,4.2506 19.30401,3.20075 21.72178,3.20075 41.02578,0 11.2821,-1.87066 32.08201,-3.78343 46.22207,-4.2506 18.04263,-0.5961 31.3855,0.11818 44.7445,2.3953 10.46944,1.78459 27.81488,6.18546 38.54538,9.77971 10.73053,3.59426 26.5029,10.53603 35.04975,15.42615 9.01034,5.15533 19.85166,13.55004 25.80206,19.9792 5.64429,6.09843 13.13059,16.47269 16.6362,23.05391 3.50562,6.58122 9.06161,19.604564 12.34668,28.940766 3.28504,9.336201 7.17105,21.928023 8.63556,27.981828 1.9054,7.87619 2.52729,24.151826 2.18644,57.221346 -0.26199,25.417921 -1.40898,65.943393 -2.5489,90.05662 -1.13992,24.1132 -2.60493,92.47275 -3.25561,151.91011 -1.02411,93.55042 -0.75745,110.35308 1.98501,125.07861 1.74242,9.35589 6.76422,34.65052 11.15953,56.21031 4.39532,21.55979 9.82734,52.95928 12.07113,69.77663 2.24381,16.81733 4.07964,39.77061 4.07964,51.00728 0,11.59827 -1.70489,29.88193 -3.94376,42.29383 -2.16906,12.02495 -6.73545,30.41892 -10.14753,40.87548 -3.41207,10.45658 -11.01796,28.91818 -16.90196,41.0258 -5.884,12.1076 -16.30856,29.66864 -23.16565,39.02453 -6.85711,9.35587 -18.62245,23.00475 -26.14519,30.33085 -7.52274,7.32609 -19.71951,17.84481 -27.1039,23.37493 -7.3844,5.5301 -19.85678,13.73406 -27.71642,18.23101 -7.85963,4.49695 -22.77341,11.62379 -33.14173,15.83746 -10.36831,4.21364 -26.95656,9.62318 -36.86278,12.02119 -9.90623,2.39798 -24.76557,5.21249 -33.02076,6.25445 -8.25519,1.04194 -25.36594,1.80806 -38.02391,1.70247 z m 1.00064,-90.01995 c 7.70484,0.11482 21.76294,-1.06234 31.2402,-2.61623 9.47726,-1.5539 21.6349,-4.77767 27.01698,-7.16395 5.38208,-2.38626 14.39414,-6.54954 20.02682,-9.25169 5.63268,-2.70215 12.12414,-6.66718 14.42544,-8.81118 2.30131,-2.144 5.07869,-3.89818 6.17191,-3.89818 1.09325,0 10.58685,-8.62712 21.0969,-19.17138 10.51004,-10.54427 19.10917,-20.37545 19.10917,-21.84708 0,-1.47163 0.71093,-2.97584 1.57985,-3.34276 0.86891,-0.36689 4.26669,-5.16991 7.55059,-10.67336 3.2839,-5.50346 8.09044,-14.50913 10.68121,-20.01259 2.59078,-5.50345 5.4061,-11.80741 6.25626,-14.0088 0.85016,-2.20139 2.52016,-6.70422 3.71107,-10.00629 1.19092,-3.30208 3.60166,-11.40717 5.35718,-18.01132 1.75553,-6.60416 4.60081,-17.86123 6.32284,-25.01573 2.20124,-9.14551 3.17747,-23.70482 3.28758,-49.03081 0.0872,-20.06566 -0.98243,-43.5579 -2.41479,-53.03334 -1.4143,-9.35588 -3.99828,-25.56607 -5.74221,-36.02265 -1.74394,-10.45657 -3.89627,-23.51478 -4.78296,-29.01823 -0.8867,-5.50346 -2.6518,-17.21082 -3.92243,-26.01636 -1.6484,-11.42341 -1.94965,-46.10994 -1.05149,-121.07611 0.69233,-57.78632 2.19816,-126.17765 3.34631,-151.98072 1.58375,-35.592671 1.50136,-51.289147 -0.34144,-65.040896 -1.33596,-9.969401 -5.03168,-26.095417 -8.21272,-35.835579 -3.18106,-9.740162 -8.06835,-22.078649 -10.86066,-27.418848 -2.79231,-5.340199 -8.83313,-13.314788 -13.42402,-17.721311 -4.59091,-4.406523 -11.7642,-10.304505 -15.94068,-13.106628 -4.17647,-2.802124 -8.43421,-5.094771 -9.46165,-5.094771 -1.02742,0 -6.61596,-2.184649 -12.41898,-4.854778 -5.80301,-2.670128 -16.85489,-5.912412 -24.55975,-7.205076 -7.70483,-1.292665 -20.76304,-1.879772 -29.01823,-1.304683 -8.25519,0.575088 -21.3134,1.930288 -29.01823,3.011553 -9.18788,1.289388 -18.82974,1.286657 -28.01762,-0.008 -7.70484,-1.085631 -20.76304,-2.44083 -29.018231,-3.011553 -8.25519,-0.570723 -21.3134,0.02001 -29.01825,1.312622 -7.70484,1.292663 -18.75672,4.534947 -24.55974,7.205076 -5.80303,2.670195 -11.39156,4.854843 -12.41899,4.854843 -1.02743,0 -5.28517,2.292648 -9.46163,5.094771 -4.17648,2.802123 -11.3497901,8.700106 -15.9406901,13.106628 -4.5909,4.406524 -10.6317,12.381113 -13.42402,17.721312 -2.7923099,5.340199 -7.6795999,17.678681 -10.8606499,27.418843 -3.18106,9.740162 -6.87679,25.866178 -8.21273,35.835579 -1.8428,13.751749 -1.9252,29.448225 -0.34145,65.040886 1.14816,25.80308 2.654,94.19441 3.34632,151.98073 0.89815,74.96616 0.59691,109.65269 -1.05148,121.0761 -1.27064,8.80554 -3.03574,20.5129 -3.92243,26.01637 -0.8867,5.50344 -3.03904,18.56165 -4.78297,29.01823 -1.74393,10.45658 -4.32793,26.66677 -5.74222,36.02264 -1.43235,9.47544 -2.50204,32.96769 -2.41479,53.03335 0.11017,25.32599 1.08634,39.88531 3.28759,49.0308 1.72203,7.1545 4.56731,18.41158 6.32283,25.01573 1.75553,6.60415 4.16627,14.70925 5.35718,18.01132 1.19092,3.30208 2.8609,7.80491 3.71108,10.0063 0.85017,2.20138 3.66549,8.50535 6.25625,14.0088 2.59078,5.50346 7.39732,14.50912 10.6812299,20.01258 3.2839,5.50345 6.68166,10.30647 7.55057999,10.67336 0.86892,0.36688 1.57985,1.87109 1.57985,3.34272 0,1.47163 8.59913001,11.30281 19.10917011,21.84708 10.51006,10.54426 20.00365,19.17138 21.09689,19.17138 1.09324,0 3.8706,1.75418 6.17191,3.89818 2.30132,2.144 8.79276,6.10903 14.42544,8.81118 5.63268,2.70215 14.70982,6.89599 20.17139,9.31963 5.46158,2.42365 16.71865,5.55335 25.015721,6.95492 8.29708,1.40155 21.38955,2.64235 29.09439,2.75732 z m 273.1717,90.01132 c -12.65795,-0.11032 -28.23105,-0.86817 -34.60688,-1.68407 -6.3758,-0.81591 -16.95745,-2.62203 -23.51477,-4.01358 -6.55731,-1.39156 -11.87911,-3.08248 -11.82622,-3.75759 0.0528,-0.67512 5.16746,-4.37946 11.3657,-8.23189 6.19827,-3.85243 20.6179,-15.95096 32.04367,-26.88563 11.42575,-10.93471 24.45199,-25.47534 28.9472,-32.31254 8.17308,-12.43129 8.17308,-12.43129 27.5078,-15.44745 10.63406,-1.65891 23.78793,-4.99196 29.2308,-7.4068 5.44285,-2.41484 14.50465,-6.60149 20.13733,-9.30364 5.63268,-2.70215 12.12414,-6.66718 14.42545,-8.81118 2.3013,-2.144 5.07866,-3.89818 6.17189,-3.89818 1.09326,0 10.58686,-8.62712 21.0969,-19.17138 10.51006,-10.54427 19.10917,-20.37545 19.10917,-21.84708 0,-1.47163 0.71094,-2.97584 1.57987,-3.34276 0.86889,-0.36689 4.26667,-5.16991 7.55058,-10.67336 3.2839,-5.50346 8.09045,-14.50913 10.68121,-20.01259 2.59076,-5.50345 5.4061,-11.80741 6.25625,-14.0088 0.85018,-2.20139 2.52017,-6.70422 3.71108,-10.00629 1.19092,-3.30208 3.60166,-11.40717 5.35718,-18.01132 1.75552,-6.60416 4.60081,-17.86123 6.32283,-25.01573 2.20125,-9.14551 3.17748,-23.70482 3.28759,-49.03081 0.0872,-20.06566 -0.98244,-43.5579 -2.41479,-53.03334 -1.41429,-9.35588 -3.99827,-25.56607 -5.74222,-36.02265 -1.74393,-10.45657 -3.89627,-23.51478 -4.78297,-29.01823 -0.88669,-5.50346 -2.65177,-17.21082 -3.92241,-26.01636 -1.6484,-11.42341 -1.94965,-46.10994 -1.05149,-121.07611 0.69231,-57.78632 2.19816,-126.17765 3.34631,-151.98072 1.58375,-35.592671 1.50136,-51.289147 -0.34143,-65.040896 -1.33596,-9.969401 -5.03169,-26.095417 -8.21273,-35.835579 -3.18105,-9.740162 -8.06835,-22.078649 -10.86066,-27.418848 -2.79233,-5.340199 -8.83314,-13.314788 -13.42402,-17.721311 -4.5909,-4.406523 -11.7642,-10.304505 -15.94068,-13.106628 -4.17646,-2.802124 -8.4342,-5.094771 -9.46165,-5.094771 -1.02742,0 -6.61596,-2.163498 -12.41898,-4.807773 -5.80301,-2.644275 -16.00855,-5.796256 -22.67896,-7.004401 -6.6704,-1.208149 -20.24867,-2.196632 -30.17391,-2.196632 -18.0459,0 -18.0459,0 -27.32348,-18.511631 -5.10263,-10.1814 -13.82882,-23.91504 -19.39152,-30.51919 -5.56268,-6.60415 -15.12256,-17.63713 -21.24418,-24.51773 -8.63579,-9.7065 -10.43565,-12.77673 -8.031,-13.69948 1.70459,-0.6541 9.29484,-0.14426 16.86727,1.133 11.50971,1.94136 17.18208,1.75704 34.58197,-1.12376 11.44767,-1.89531 32.38305,-3.82826 46.5231,-4.29543 18.04264,-0.5961 31.3855,0.11818 44.7445,2.3953 10.46944,1.78459 27.81488,6.18546 38.5454,9.77971 10.73051,3.59426 26.50289,10.53603 35.04974,15.42615 9.01034,5.15533 19.85166,13.55004 25.80206,19.9792 5.64428,6.09843 13.1306,16.47269 16.6362,23.05391 3.50562,6.58122 9.06162,19.604564 12.34667,28.940766 3.28506,9.336201 7.17106,21.928023 8.63557,27.981828 1.90541,7.87619 2.52729,24.151826 2.18644,57.221346 -0.26199,25.417921 -1.40899,65.943393 -2.5489,90.05662 -1.13992,24.1132 -2.60495,92.47275 -3.25561,151.91011 -1.0241,93.55042 -0.75746,110.35308 1.985,125.07861 1.74242,9.35589 6.76421,34.65052 11.15955,56.21031 4.39531,21.55979 9.82733,52.95928 12.07112,69.77663 2.24381,16.81733 4.07964,39.77061 4.07964,51.00728 0,11.59827 -1.70489,29.88193 -3.94376,42.29383 -2.16905,12.02495 -6.73545,30.41892 -10.14753,40.87548 -3.41206,10.45658 -11.01797,28.91818 -16.90197,41.0258 -5.884,12.1076 -16.30855,29.66864 -23.16564,39.02453 -6.8571,9.35587 -18.62244,23.00475 -26.14519,30.33085 -7.52275,7.32609 -19.71951,17.84481 -27.1039,23.37493 -7.3844,5.5301 -19.85677,13.73406 -27.71642,18.23101 -7.85964,4.49695 -22.77341,11.62379 -33.14173,15.83746 -10.36832,4.21364 -26.95657,9.62318 -36.86279,12.02119 -9.90623,2.39798 -24.76557,5.21249 -33.02076,6.25445 -8.25519,1.04194 -25.36594,1.80418 -38.02389,1.69384 z"
       id="path2177" />
    <path
       style="fill:#000000;stroke-width:1.33333"
       id="path2119"
       d="" />
  </g>
</svg>
